<svg xmlns="http://www.w3.org/2000/svg" width="256" height="256" viewBox="0 0 100 100"><rect width="100" height="100" rx="50" fill="#004de6"></rect><path fill="#fff" d="M35.36 83.50L27.30 83.50L27.30 16.50L53.98 16.50Q63.01 16.50 67.86 21.63Q72.70 26.77 72.70 35.70L72.70 35.70Q72.70 44.62 67.86 49.76Q63.01 54.90 53.98 54.90L53.98 54.90L35.36 54.90L35.36 83.50ZM35.36 23.60L35.36 47.79L53.98 47.79Q58.78 47.79 61.42 45.30Q64.06 42.80 64.06 38.19L64.06 38.19L64.06 33.20Q64.06 28.59 61.42 26.10Q58.78 23.60 53.98 23.60L53.98 23.60L35.36 23.60Z"></path></svg>